HIERARCHY
ROOT hip
{
  OFFSET 0 0 0
  CHANNELS 6 Xposition Yposition Zposition Zrotation Yrotation Xrotation
  JOINT abdomen
  {
    OFFSET 0 20.6881 -0.73152
    CHANNELS 3 Zrotation Xrotation Yrotation
    JOINT chest
    {
      OFFSET 0 11.7043 -0.48768
      CHANNELS 3 Zrotation Xrotation Yrotation
      JOINT neck
      {
        OFFSET 0 22.1894 -2.19456
        CHANNELS 3 Zrotation Xrotation Yrotation
        JOINT head
        {
          OFFSET -0.24384 7.07133 1.2192
          CHANNELS 3 Zrotation Xrotation Yrotation
          JOINT leftEye
          {
            OFFSET 4.14528 8.04674 8.04672
            CHANNELS 3 Zrotation Xrotation Yrotation
            End Site
            {
              OFFSET 1 0 0
            }
          }
          JOINT rightEye
          {
            OFFSET -3.6576 8.04674 8.04672
            CHANNELS 3 Zrotation Xrotation Yrotation
            End Site
            {
              OFFSET 1 0 0
            }
          }
        }
      }
      JOINT rCollar
      {
        OFFSET -2.68224 19.2634 -4.8768
        CHANNELS 3 Zrotation Xrotation Yrotation
        JOINT rShldr
        {
          OFFSET -8.77824 -1.95073 1.46304
          CHANNELS 3 Zrotation Xrotation Yrotation
          JOINT rForeArm
          {
            OFFSET -28.1742 -1.7115 0.48768
            CHANNELS 3 Zrotation Xrotation Yrotation
            JOINT rHand
            {
              OFFSET -22.5879 0.773209 7.07136
              CHANNELS 3 Zrotation Xrotation Yrotation
              JOINT rThumb1
              {
                OFFSET -1.2192 -0.487915 3.41376
                CHANNELS 3 Zrotation Xrotation Yrotation
                JOINT rThumb2
                {
                  OFFSET -3.37035 -0.52449 3.41376
                  CHANNELS 3 Zrotation Xrotation Yrotation
                  End Site
                  {
                    OFFSET -1.78271 -1.18214 1.43049
                  }
                }
              }
              JOINT rIndex1
              {
                OFFSET -7.75947 0.938293 5.60832
                CHANNELS 3 Zrotation Xrotation Yrotation
                JOINT rIndex2
                {
                  OFFSET -2.54057 -0.884171 1.56538
                  CHANNELS 3 Zrotation Xrotation Yrotation
                  End Site
                  {
                    OFFSET -1.62519 -0.234802 1.16502
                  }
                }
              }
              JOINT rMid1
              {
                OFFSET -8.24714 1.18213 3.41376
                CHANNELS 3 Zrotation Xrotation Yrotation
                JOINT rMid2
                {
                  OFFSET -3.10165 -0.590103 1.0647
                  CHANNELS 3 Zrotation Xrotation Yrotation
                  End Site
                  {
                    OFFSET -2.48547 -0.328903 0.83742
                  }
                }
              }
              JOINT rRing1
              {
                OFFSET -8.82822 0.546677 1.51678
                CHANNELS 3 Zrotation Xrotation Yrotation
                JOINT rRing2
                {
                  OFFSET -2.60934 -0.819778 -0.0198488
                  CHANNELS 3 Zrotation Xrotation Yrotation
                  End Site
                  {
                    OFFSET -2.33842 -0.294052 0.168128
                  }
                }
              }
              JOINT rPinky1
              {
                OFFSET -8.27202 -0.0477905 -0.4584
                CHANNELS 3 Zrotation Xrotation Yrotation
                JOINT rPinky2
                {
                  OFFSET -1.82734 -0.647385 -0.700984
                  CHANNELS 3 Zrotation Xrotation Yrotation
                  End Site
                  {
                    OFFSET -1.69225 -0.51767 -0.607171
                  }
                }
              }
            }
          }
        }
      }
      JOINT lCollar
      {
        OFFSET 2.68224 19.2634 -4.8768
        CHANNELS 3 Zrotation Xrotation Yrotation
        JOINT lShldr
        {
          OFFSET 8.77824 -1.95073 1.46304
          CHANNELS 3 Zrotation Xrotation Yrotation
          JOINT lForeArm
          {
            OFFSET 28.1742 -1.7115 0.48768
            CHANNELS 3 Zrotation Xrotation Yrotation
            JOINT lHand
            {
              OFFSET 22.5879 0.773209 7.07136
              CHANNELS 3 Zrotation Xrotation Yrotation
              JOINT lThumb1
              {
                OFFSET 1.2192 -0.487915 3.41376
                CHANNELS 3 Zrotation Xrotation Yrotation
                JOINT lThumb2
                {
                  OFFSET 3.37035 -0.52449 3.41376
                  CHANNELS 3 Zrotation Xrotation Yrotation
                  End Site
                  {
                    OFFSET 1.78271 -1.18214 1.43049
                  }
                }
              }
              JOINT lIndex1
              {
                OFFSET 7.75947 0.938293 5.60832
                CHANNELS 3 Zrotation Xrotation Yrotation
                JOINT lIndex2
                {
                  OFFSET 2.54057 -0.884171 1.56538
                  CHANNELS 3 Zrotation Xrotation Yrotation
                  End Site
                  {
                    OFFSET 1.62519 -0.234802 1.16502
                  }
                }
              }
              JOINT lMid1
              {
                OFFSET 8.24714 1.18213 3.41376
                CHANNELS 3 Zrotation Xrotation Yrotation
                JOINT lMid2
                {
                  OFFSET 3.10165 -0.590103 1.0647
                  CHANNELS 3 Zrotation Xrotation Yrotation
                  End Site
                  {
                    OFFSET 2.48547 -0.328903 0.83742
                  }
                }
              }
              JOINT lRing1
              {
                OFFSET 8.82822 0.546677 1.51678
                CHANNELS 3 Zrotation Xrotation Yrotation
                JOINT lRing2
                {
                  OFFSET 2.60934 -0.819778 -0.0198488
                  CHANNELS 3 Zrotation Xrotation Yrotation
                  End Site
                  {
                    OFFSET 2.33842 -0.294052 0.168128
                  }
                }
              }
              JOINT lPinky1
              {
                OFFSET 8.27202 -0.0477905 -0.4584
                CHANNELS 3 Zrotation Xrotation Yrotation
                JOINT lPinky2
                {
                  OFFSET 1.82734 -0.647385 -0.700984
                  CHANNELS 3 Zrotation Xrotation Yrotation
                  End Site
                  {
                    OFFSET 1.69225 -0.51767 -0.607171
                  }
                }
              }
            }
          }
        }
      }
    }
  }
  JOINT rButtock
  {
    OFFSET -8.77824 4.35084 1.2192
    CHANNELS 3 Zrotation Xrotation Yrotation
    JOINT rThigh
    {
      OFFSET 0 -1.70687 -2.19456
      CHANNELS 3 Zrotation Xrotation Yrotation
      JOINT rShin
      {
        OFFSET 0 -36.8199 0.73152
        CHANNELS 3 Zrotation Xrotation Yrotation
        JOINT rFoot
        {
          OFFSET 0.73152 -45.1104 -5.12064
          CHANNELS 3 Zrotation Xrotation Yrotation
          End Site
          {
            OFFSET -1.1221 -3.69964 12.103
          }
        }
      }
    }
  }
  JOINT lButtock
  {
    OFFSET 8.77824 4.35084 1.2192
    CHANNELS 3 Zrotation Xrotation Yrotation
    JOINT lThigh
    {
      OFFSET 0 -1.70687 -2.19456
      CHANNELS 3 Zrotation Xrotation Yrotation
      JOINT lShin
      {
        OFFSET 0 -36.8199 0.73152
        CHANNELS 3 Zrotation Xrotation Yrotation
        JOINT lFoot
        {
          OFFSET -0.73152 -45.1104 -5.12064
          CHANNELS 3 Zrotation Xrotation Yrotation
          End Site
          {
            OFFSET 1.1221 -3.69964 12.103
          }
        }
      }
    }
  }
}
MOTION
Frames:	4
Frame Time:	0.03333
1.1762 50.10869999999999 0.6809 -18.682264 31.176706 -3.878558 14.562997 8.308909 0.0 2.899784 -6.598546 3.675016 10.729943 19.265473 74.173128 -30.198582 -4.63731 -53.163577 0.004095 -0.0 -0.002409 -0.001552 0.0 -0.001738 -44.041498 64.186475 46.71133 67.424243 17.549366 26.748812 3.211578 -29.331202 112.220481 -10.822931 -23.978031 -6.410972 -93.743577 37.964168 53.548712 40.412288 -37.097481 24.053974 -169.123289 -47.194508 121.484287 -21.890799 45.750241 13.470997 -160.494347 -6.112107 143.160579 -163.290073 -4.786297 142.966142 -13.618427 -53.679949 -25.681803 12.620793 23.103312 1.040588 17.056064 59.773292 12.725719 11.655026 32.921751 6.615888 -0.022979 -0.138635 0.031025 86.811038 31.321342 -135.182017 18.505835 12.131656 52.90204 -79.478434 -61.967473 -73.874248 166.746294 -4.417801 -89.780955 -178.337433 -18.087474 -92.051277 138.093065 5.494995 -114.615928 -103.962188 -70.404727 -52.183083 4.681148 12.536682 -2.930166 -3.20981 0.200917 -0.004927 -0.005243 0.917329 -0.289551 156.54756 -42.781167 -177.031679 134.694214 -14.105262 132.11412 -10.665994 22.667127 -3.573262 -0.001415 0.000112 -0.0 -12.193834 11.408585 25.724512 23.575964 26.552557 7.961437 -175.504912 -54.211949 96.279903 -0.000533 0.000112 0.000686 94.643444 -51.564466 -0.0 -82.63713 6.501214 53.897369 -100.758036 -55.273817 4.149091
1.2713999999999999 50.090900000000005 0.7078 -18.659814 31.175895 -3.813821 12.295739 5.028819 111.908714 -5.052935 -3.52989 -108.565168 9.092602 17.143744 59.458504 -25.653674 -12.330903 -39.756427 -9.7e-05 0.0 -0.000869 -9.7e-05 0.0 -0.000869 0.133229 -0.807227 -0.177836 64.060605 10.152293 -40.339857 -178.773193 -13.447329 32.165733 -159.078811 18.744566 136.2809 -12.306032 11.514871 3.094089 -13.212437 11.805211 17.819322 37.215114 -57.918073 -0.645261 -82.339835 50.639732 68.722735 -160.826963 -7.141568 143.31676 -163.24683 -4.646341 142.951665 0.003727 1.770497 0.555907 10.578856 -6.057733 -0.807068 -145.498319 13.102651 -142.113564 -148.171367 13.447971 -142.100964 150.168322 21.535476 -155.276014 -144.264087 -0.531356 179.147911 -175.469907 -2.771606 -114.725374 -143.750253 -43.968718 -135.415956 -71.831212 -48.263713 -25.791666 21.216702 -9.694753 17.45216 -37.216621 -57.917555 0.643113 76.679952 51.392908 -63.893018 153.321005 13.629228 -138.863057 -2.449556 2.441548 -0.685182 0.000249 -0.060886 0.018856 156.392125 -21.698303 -174.397308 -6.229019 18.789116 -5.576281 147.270557 10.261498 143.283245 0.004376 -0.000415 0.004376 -11.773281 11.48734 -0.0 -3.601238 41.763875 -99.537576 -169.775224 -50.374704 -66.405587 0.0 0.000758 -0.000379 96.604982 -52.692412 -84.737891 -75.626911 -82.843598 21.083018 75.728306 68.901881 -2.140195
1.3371 50.0791 0.6998 -18.605832 31.029964 -3.807684 12.253803 5.043119 112.035062 -5.065605 -3.524334 -108.675107 -9.850276 23.093303 -73.259339 37.59809 6.901017 95.439364 0.005902 0.0 0.005869 -0.000704 -0.0 0.001907 -158.465138 -30.012045 166.911303 -68.52989 19.869337 27.164831 6.096523 -35.514227 -143.850044 -159.428218 18.150027 136.551926 171.560162 -25.005087 87.391987 132.630044 -66.319996 101.090865 60.461545 -70.523701 15.710398 2.889557 21.244448 0.223457 6.532464 -20.415036 -2.71798 80.536634 -77.993243 52.145738 0.005348 0.876454 0.275301 -156.133468 -12.553407 173.344923 26.980299 80.122151 10.1315 -161.838735 55.541876 -148.46837 13.743479 42.43159 -15.569094 95.702716 21.555762 -104.131654 -4.081233 -2.513662 63.141711 -134.126749 -51.421483 -126.427115 169.150069 -6.830114 -89.915501 39.72181 -22.250077 -7.500465 166.820224 -43.974202 -122.06173 -86.730643 -69.00954 -32.167195 -6.533448 -20.414919 2.716731 85.97459 64.23411 -77.752184 145.118509 0.185109 179.187333 -7.733893 -21.549157 12.221743 113.838895 -39.285813 111.848581 80.703229 -53.000648 81.115368 0.0 0.001023 -0.000389 -11.921809 11.456605 2.166007 -1.84378 37.805072 -66.069506 109.304042 11.869028 -1.110337 -0.000118 -0.001836 0.000151 92.859381 -52.905892 92.281462 82.833728 83.077402 167.329267 -2.82573 33.353947 100.946252
1.3465 50.0644 0.6214 -18.54396 30.965723 -3.774877 16.658386 6.872814 -68.202449 5.024519 -1.27228 71.610423 -9.243816 20.722554 -59.586658 35.883058 -1.072856 83.979632 0.001312 -0.0 -0.002191 0.001129 0.0 0.001093 3.540827 -62.05302 -13.04055 168.379677 -3.828005 -131.390172 56.274393 19.656837 148.989823 -68.522568 55.309924 47.699081 71.830502 -48.264076 25.792187 -13.479663 -35.151404 -28.36694 60.463903 -70.522645 15.713734 98.149348 -65.868635 40.122555 0.047031 -0.138739 -0.026092 -7.306521 26.196899 6.028908 -0.021171 -1.72624 -0.541227 9.436872 12.101995 1.568226 -139.224088 -4.397983 -136.392626 -23.873321 -39.187191 -25.583018 -3.231513 -26.298076 5.157137 112.199856 -8.910388 -166.62282 0.751364 -1.055981 62.962453 -126.032616 -55.570461 -118.706466 5.434005 5.264876 -1.077305 25.060299 20.039029 -24.744137 138.493464 4.895953 -114.86417 153.703746 4.729668 -117.199895 161.153762 -8.160425 -143.465782 9.256424 29.339488 -7.711168 145.117356 0.185922 179.185689 148.137017 -42.99875 170.612519 -9.909541 32.238221 -8.580459 -11.607877 32.389126 -6.990355 0.000488 0.00033 -0.000627 -12.062545 11.437302 2.188261 1.838789 44.991396 -140.021984 176.542717 53.624966 -79.40106 0.0 -0.000845 0.000336 94.68509 -51.751937 -0.0 -89.436408 16.054972 176.935074 -81.481786 70.214653 -4.621518
